<?xml version="1.0" encoding="utf-8"?>
<!-- Generator: Adobe Illustrator 24.1.0, SVG Export Plug-In . SVG Version: 6.00 Build 0)  -->
<svg version="1.1" id="Layer_1" xmlns="http://www.w3.org/2000/svg" xmlns:xlink="http://www.w3.org/1999/xlink" x="0px" y="0px"
	 viewBox="0 0 200 113" style="enable-background:new 0 0 200 113;" xml:space="preserve">
<style type="text/css">
	.st0{fill:#FFFFFF;}
</style>
<path d="M171.3,38.5l0.2-0.5L200,4.1l-12.9,3.3l-6.7,7.4l-8.2-2.6l-3,0.9l-3,6.6l-10.7-3.7l-5.1,11.1l-0.8,0.7l11.2-24.4l-12-3.9
	l-10.5,23.2l-7.6,8.5l-7.8-4.3L108,31.3l-8.2,9.2l-7.9-4.3l-14.6,4.3l-1.9,2.1l0.8-1.9l3.8-8.3l-15.9,4.7l-3,6.6l2.7,0.8L61,45.4
	l-1.6,1.5l0.5-1.2l-12.3,3.6l6.7-14.8l-9.6-2.9l-21.5,6.4l-9.1,2.6L8,54.2l7.7-2.3L0,86.5l11.4,3.7l4.6-1.4l-6.5,14.2l11.2,3.4
	l9.5-9.3l52.2-12.3l-11.2,24.7l11.5,3.7l8.1-2.4l10.1-9.3l11.1,3.5l6.5-6.8l8.6,2.7l2.8-6.2l2.3-2.2l10.5,3.3l6.5-6.8l8.6,2.7
	l2.9-6.4L180.1,66l-9.2-2.9l-0.5,0.5l10-22.1L171.3,38.5z M123.7,57.3l-1.8-0.6l5.5-6.4l7.7,2.5l-7.6,16.7l-7.3,2.1l-5.3,4.7
	L123.7,57.3z M145.5,67.6l-2.6,2.4l-3,2.8l2.8-6.1L145.5,67.6z M148.3,50.1l-6.2-2l2.4-2.5l6.1,1.9L148.3,50.1z M38.6,86.2L31.8,84
	l2.4-5.2l9.3,3l4.7-10.3l0.6-0.6l-1,2.2l7.5,2.4l3.8,1.2l6.8-7.9l8.5,2.7l14.6-4.4l1.1,0.2l0.6-0.7l0.4-0.1l0.5-0.9l5.2-6l3.8,1.2
	l-9.1,8.1l0.1-0.2L38.6,86.2z M33.2,46.7l2.2-0.7L34,49l7,2.2L31.7,54l0,0l-2.2,0.6L33.2,46.7z M27.4,63.6L24,70.9l-2.7,1.8l4.4-9.7
	L27.4,63.6z"/>
<g>
	<path class="st0" d="M115.9,56.5l-11,3.3l-13.5,12L75.8,106l7.1,2.3l6.5-1.9l13.9-12.9l16.2-35.7L115.9,56.5z M94.8,94.5l-9.6,8.6
		l17.1-37.6l6.6-2L94.8,94.5z"/>
	<path class="st0" d="M170.5,40l-9.8,21.5l-8,2.3l-8,7.4v0l-14.2,13.1L145.8,51l-5.8-1.9l-9.8,21.5l-8,2.3l-9.2,8.2l-7.5,16.6
		l5.9,1.9L122,88.6l-2.3,5l5.8,1.8l1.9-4.1L140.8,78L136,88.7l5.9,1.9l10.7-11.1l-2.3,5l5.8,1.8l2-4.3l16.3-16.1l-2.3-0.7l-10.8,10
		l15.1-33.2L170.5,40z M115.2,91l6.1-13.4l6.6-2l-2.9,6.3L115.2,91z M145.8,81.9l6.1-13.4l6.6-2l-2.9,6.3L145.8,81.9z"/>
	<polygon class="st0" points="72.1,41 74.4,35.9 66.7,38.2 65.8,40.1 70.2,41.5 	"/>
	<path class="st0" d="M189.1,8.7l-16.4,18.1l5.1-11.1l-5.3-1.7l-0.7,0.2l-5.1,11.3l-9.9,9.1l6.4-14.1l-5.8-2l-4.1,9.1l-13.1,12.1
		l16.4-35.8L150.6,2l-9.5,21l-23.7,26.4l-9.1,2.7l1-1.8l18-17.2h0l1.1-1l-5.9-3.2L110,32.5l-23.4,26l-8.9,2.6l1.4-2.4l17.4-16.6h0
		l1.1-1L91.8,38l-12.5,3.7L64.1,58.6l6.5-14.3l-7.8,2.4L50.2,58.2l4.1-9L42,52.8l0-0.1L34.3,55l0,0L25,57.8l7,2.3l-5.2,11.4L14,80.2
		l17.2-37.7l10.3-3.1l-2.7,6l5.8,1.9L50.1,35l-5.2-1.6l-20.6,6.2l-7.7,2.2l-2.6,5.7l7.7-2.3L4.7,82.9l7,2.3l3.4-1l8.8-6.1l-9.7,21.4
		l5.9,1.8l14.9-14.5l-3.3-1l-7.6,6.6l9.6-21l0.1-0.2l6-13.2l4.6-1.3l-5.4,12l0,0l0,0l-2.7,5.9l5.8,1.9l3.8-8.3l12.5-11.2l-5.8,12.7
		l4.1,1.3l1.7,0.6L80.1,46l7.2-1.7L71.4,58.8l-2.2,4.9l-0.4,1l5.8,1.9L89,62.2l0,0l0,0l21.8-25.4l7.2-1.7l-15.9,14.5l-2.2,4.9
		l-0.4,1l5.8,1.9l14.4-4.3l16.2-18.7l-5.4,12l5.8,1.9l14.3-14.9l-3.7,8.1l5.9,1.9l10.7-11.1l-4.3,9.4l-13.7,15l-2.6,5.2l4.7,1.5
		l9.6-2.9L169,34.7l22.3-26.6L189.1,8.7z M151.6,58.4l-2-0.6l4.9-5.8L151.6,58.4z"/>
	<polygon class="st0" points="85.9,72.4 38.8,88 35.6,91 82.6,79.9 	"/>
</g>
</svg>
